<?xml version="1.0" standalone="no"?>
<!DOCTYPE svg PUBLIC "-//W3C//DTD SVG 20010904//EN"
 "http://www.w3.org/TR/2001/REC-SVG-20010904/DTD/svg10.dtd">
<svg version="1.0" xmlns="http://www.w3.org/2000/svg"
 width="362.000000pt" height="362.000000pt" viewBox="0 0 362.000000 362.000000"
 preserveAspectRatio="xMidYMid meet">
<metadata>
Created by potrace 1.11, written by Peter Selinger 2001-2013
</metadata>
<g transform="translate(0.000000,362.000000) scale(0.100000,-0.100000)"
fill="#000000" stroke="none">
<path d="M702 2297 l-682 -682 445 -445 445 -445 130 130 c109 108 133 127
140 113 48 -83 173 -194 280 -248 45 -22 171 -70 187 -70 1 0 3 21 3 46 0 40
2 45 18 39 39 -17 216 -17 281 0 415 108 672 545 547 930 -42 131 -85 182
-453 542 -186 183 -351 342 -366 353 -25 20 -27 27 -27 94 l0 74 -107 102
c-60 56 -119 113 -133 126 l-26 23 -682 -682z m965 193 c147 -140 357 -342
465 -449 l198 -194 0 -76 c-1 -256 -137 -546 -339 -720 -113 -97 -278 -187
-392 -214 -61 -15 -264 156 -362 305 l-52 78 -142 -142 -143 -143 -259 259
-259 259 -21 71 c-11 39 -24 93 -27 119 l-7 49 529 529 c291 291 532 528 536
527 4 -2 127 -118 275 -258z"/>
<path d="M1726 1754 c-64 -20 -113 -52 -159 -103 -62 -69 -81 -122 -81 -226 0
-79 3 -97 29 -148 35 -70 98 -130 173 -165 81 -37 193 -38 273 0 222 103 274
384 101 556 -85 85 -226 121 -336 86z m24 -96 l0 -43 55 3 c117 8 205 -74 205
-190 0 -68 -15 -103 -64 -145 -44 -39 -97 -57 -152 -50 l-43 4 -3 -43 -3 -43
-45 20 c-85 38 -139 109 -161 208 -18 86 23 202 95 264 21 18 94 56 109 57 4
0 7 -19 7 -42z"/>
<path d="M2045 2799 c-104 -99 -200 -190 -213 -203 l-23 -23 228 -212 c125
-117 266 -254 311 -304 252 -277 326 -526 247 -830 -17 -65 -73 -192 -104
-235 l-20 -28 122 -122 122 -122 448 448 447 447 -683 683 c-375 375 -684 682
-687 682 -3 0 -90 -82 -195 -181z"/>
</g>
</svg>
